<svg width="150" height="150" viewBox="0 0 104 104" fill="none" xmlns="http://www.w3.org/2000/svg">
<circle cx="52" cy="52" r="52" fill="#F9D1A0"/>
<path d="M45.833 51.5001L59.5462 33.1853M59.5462 33.1853C56.5585 38.3025 56.8851 41.7294 59.5463 45.9998M59.5462 33.1853C55.4805 36.2448 51.8328 38.5 46.6672 35.8555" stroke="black"/>
<path d="M23.576 72.2136C23.024 72.2136 22.528 72.1176 22.088 71.9256C21.656 71.7256 21.316 71.4536 21.068 71.1096C20.82 70.7576 20.692 70.3536 20.684 69.8976H21.848C21.888 70.2896 22.048 70.6216 22.328 70.8936C22.616 71.1576 23.032 71.2896 23.576 71.2896C24.096 71.2896 24.504 71.1616 24.8 70.9056C25.104 70.6416 25.256 70.3056 25.256 69.8976C25.256 69.5776 25.168 69.3176 24.992 69.1176C24.816 68.9176 24.596 68.7656 24.332 68.6616C24.068 68.5576 23.712 68.4456 23.264 68.3256C22.712 68.1816 22.268 68.0376 21.932 67.8936C21.604 67.7496 21.32 67.5256 21.08 67.2216C20.848 66.9096 20.732 66.4936 20.732 65.9736C20.732 65.5176 20.848 65.1136 21.08 64.7616C21.312 64.4096 21.636 64.1376 22.052 63.9456C22.476 63.7536 22.96 63.6576 23.504 63.6576C24.288 63.6576 24.928 63.8536 25.424 64.2456C25.928 64.6376 26.212 65.1576 26.276 65.8056H25.076C25.036 65.4856 24.868 65.2056 24.572 64.9656C24.276 64.7176 23.884 64.5936 23.396 64.5936C22.94 64.5936 22.568 64.7136 22.28 64.9536C21.992 65.1856 21.848 65.5136 21.848 65.9376C21.848 66.2416 21.932 66.4896 22.1 66.6816C22.276 66.8736 22.488 67.0216 22.736 67.1256C22.992 67.2216 23.348 67.3336 23.804 67.4616C24.356 67.6136 24.8 67.7656 25.136 67.9176C25.472 68.0616 25.76 68.2896 26 68.6016C26.24 68.9056 26.36 69.3216 26.36 69.8496C26.36 70.2576 26.252 70.6416 26.036 71.0016C25.82 71.3616 25.5 71.6536 25.076 71.8776C24.652 72.1016 24.152 72.2136 23.576 72.2136ZM34.411 63.7656V72.1296H33.319V68.3376H29.059V72.1296H27.967V63.7656H29.059V67.4376H33.319V63.7656H34.411ZM40.0676 72.2136C39.2916 72.2136 38.5836 72.0336 37.9436 71.6736C37.3036 71.3056 36.7956 70.7976 36.4196 70.1496C36.0516 69.4936 35.8676 68.7576 35.8676 67.9416C35.8676 67.1256 36.0516 66.3936 36.4196 65.7456C36.7956 65.0896 37.3036 64.5816 37.9436 64.2216C38.5836 63.8536 39.2916 63.6696 40.0676 63.6696C40.8516 63.6696 41.5636 63.8536 42.2036 64.2216C42.8436 64.5816 43.3476 65.0856 43.7156 65.7336C44.0836 66.3816 44.2676 67.1176 44.2676 67.9416C44.2676 68.7656 44.0836 69.5016 43.7156 70.1496C43.3476 70.7976 42.8436 71.3056 42.2036 71.6736C41.5636 72.0336 40.8516 72.2136 40.0676 72.2136ZM40.0676 71.2656C40.6516 71.2656 41.1756 71.1296 41.6396 70.8576C42.1116 70.5856 42.4796 70.1976 42.7436 69.6936C43.0156 69.1896 43.1516 68.6056 43.1516 67.9416C43.1516 67.2696 43.0156 66.6856 42.7436 66.1896C42.4796 65.6856 42.1156 65.2976 41.6516 65.0256C41.1876 64.7536 40.6596 64.6176 40.0676 64.6176C39.4756 64.6176 38.9476 64.7536 38.4836 65.0256C38.0196 65.2976 37.6516 65.6856 37.3796 66.1896C37.1156 66.6856 36.9836 67.2696 36.9836 67.9416C36.9836 68.6056 37.1156 69.1896 37.3796 69.6936C37.6516 70.1976 38.0196 70.5856 38.4836 70.8576C38.9556 71.1296 39.4836 71.2656 40.0676 71.2656ZM51.3012 66.2136C51.3012 66.9096 51.0612 67.4896 50.5812 67.9536C50.1092 68.4096 49.3852 68.6376 48.4092 68.6376H46.8012V72.1296H45.7092V63.7656H48.4092C49.3532 63.7656 50.0692 63.9936 50.5572 64.4496C51.0532 64.9056 51.3012 65.4936 51.3012 66.2136ZM48.4092 67.7376C49.0172 67.7376 49.4652 67.6056 49.7532 67.3416C50.0412 67.0776 50.1852 66.7016 50.1852 66.2136C50.1852 65.1816 49.5932 64.6656 48.4092 64.6656H46.8012V67.7376H48.4092ZM62.4336 72.1296H61.3416L56.9496 65.4696V72.1296H55.8576V63.7536H56.9496L61.3416 70.4016V63.7536H62.4336V72.1296ZM68.0871 72.2136C67.3111 72.2136 66.6031 72.0336 65.9631 71.6736C65.3231 71.3056 64.8151 70.7976 64.4391 70.1496C64.0711 69.4936 63.8871 68.7576 63.8871 67.9416C63.8871 67.1256 64.0711 66.3936 64.4391 65.7456C64.8151 65.0896 65.3231 64.5816 65.9631 64.2216C66.6031 63.8536 67.3111 63.6696 68.0871 63.6696C68.8711 63.6696 69.5831 63.8536 70.2231 64.2216C70.8631 64.5816 71.3671 65.0856 71.7351 65.7336C72.1031 66.3816 72.2871 67.1176 72.2871 67.9416C72.2871 68.7656 72.1031 69.5016 71.7351 70.1496C71.3671 70.7976 70.8631 71.3056 70.2231 71.6736C69.5831 72.0336 68.8711 72.2136 68.0871 72.2136ZM68.0871 71.2656C68.6711 71.2656 69.1951 71.1296 69.6591 70.8576C70.1311 70.5856 70.4991 70.1976 70.7631 69.6936C71.0351 69.1896 71.1711 68.6056 71.1711 67.9416C71.1711 67.2696 71.0351 66.6856 70.7631 66.1896C70.4991 65.6856 70.1351 65.2976 69.6711 65.0256C69.2071 64.7536 68.6791 64.6176 68.0871 64.6176C67.4951 64.6176 66.9671 64.7536 66.5031 65.0256C66.0391 65.2976 65.6711 65.6856 65.3991 66.1896C65.1351 66.6856 65.0031 67.2696 65.0031 67.9416C65.0031 68.6056 65.1351 69.1896 65.3991 69.6936C65.6711 70.1976 66.0391 70.5856 66.5031 70.8576C66.9751 71.1296 67.5031 71.2656 68.0871 71.2656ZM84.2407 63.7656L81.8167 72.1296H80.5927L78.6487 65.3976L76.6327 72.1296L75.4207 72.1416L73.0807 63.7656H74.2447L76.0687 70.8576L78.0847 63.7656H79.3087L81.2287 70.8336L83.0647 63.7656H84.2407Z" fill="black"/>
</svg>
